<?xml version="1.0" encoding="UTF-8" standalone="no"?>
<svg
   xmlns:dc="http://purl.org/dc/elements/1.1/"
   xmlns:cc="http://creativecommons.org/ns#"
   xmlns:rdf="http://www.w3.org/1999/02/22-rdf-syntax-ns#"
   xmlns:svg="http://www.w3.org/2000/svg"
   xmlns="http://www.w3.org/2000/svg"
   xmlns:sodipodi="http://sodipodi.sourceforge.net/DTD/sodipodi-0.dtd"
   xmlns:inkscape="http://www.inkscape.org/namespaces/inkscape"
   id="Layer_1"
   data-name="Layer 1"
   viewBox="0 0 1368.5907 235.49319"
   version="1.1"
   sodipodi:docname="cyberpurify_logo.svg"
   width="1368.5907"
   height="235.49318"
   inkscape:version="1.0.2 (e86c8708, 2021-01-15)">
  <metadata
     id="metadata71">
    <rdf:RDF>
      <cc:Work
         rdf:about="">
        <dc:format>image/svg+xml</dc:format>
        <dc:type
           rdf:resource="http://purl.org/dc/dcmitype/StillImage" />
        <dc:title></dc:title>
      </cc:Work>
    </rdf:RDF>
  </metadata>
  <sodipodi:namedview
     pagecolor="#ffffff"
     bordercolor="#666666"
     borderopacity="1"
     objecttolerance="10"
     gridtolerance="10"
     guidetolerance="10"
     inkscape:pageopacity="0"
     inkscape:pageshadow="2"
     inkscape:window-width="1283"
     inkscape:window-height="690"
     id="namedview69"
     showgrid="false"
     fit-margin-top="0"
     fit-margin-left="0"
     fit-margin-right="0"
     fit-margin-bottom="0"
     inkscape:zoom="0.58600427"
     inkscape:cx="715.86508"
     inkscape:cy="126.61807"
     inkscape:window-x="0"
     inkscape:window-y="25"
     inkscape:window-maximized="0"
     inkscape:current-layer="Layer_1" />
  <defs
     id="defs12">
    <style
       id="style10">.cls-1{fill:#fff;}.cls-2{fill:none;stroke:#231f20;stroke-miterlimit:10;}.cls-3{fill:#ed334c;}.cls-4{fill:#fbb315;}.cls-5{fill:#4d606c;}.cls-6{fill:#7db442;}.cls-7{fill:#1691cf;}.cls-8{fill:#54c3e9;}.cls-9{fill:#23a7df;}.cls-10{fill:#235a9c;}.cls-10,.cls-11,.cls-12,.cls-13{fill-rule:evenodd;}.cls-11,.cls-14{fill:#188fca;}.cls-12{fill:#2f6cb2;}.cls-13{fill:#3da6dd;}</style>
  </defs>
  <rect
     class="cls-1"
     width="1872"
     height="628.65997"
     id="rect14"
     x="-220.13492"
     y="-187.71193" />
  <path
     class="cls-2"
     d="M 1018.7051,38.668071"
     id="path16" />
  <path
     class="cls-3"
     d="m 76.325082,157.85807 a 30.75,30.75 0 0 0 18.93,-6.67 13.23,13.23 0 0 1 17.939998,1.62 l 0.35,0.39 a 13.14,13.14 0 0 1 -1.8,19.19 q -16.799998,12.74 -35.619998,12.74 -24.81,0 -41.93,-15.69 -17.12,-15.69 -17.12,-41 0,-25.32 17.33,-41.209999 a 58.78,58.78 0 0 1 41.1,-15.89 64,64 0 0 1 24.09,4.92 60.64,60.64 0 0 1 10.549998,5.49 13.19,13.19 0 0 1 3.25,18.999999 v 0 a 13.08,13.08 0 0 1 -17.169998,3.33 37.45,37.45 0 0 0 -4.21,-2.15 36.69,36.69 0 0 0 -15.28,-3.489999 30,30 0 0 0 -20.81,7.899999 q -8.72,7.89 -8.71,21.93 0.01,14.04 8.71,21.84 a 29.66,29.66 0 0 0 20.4,7.75 z"
     id="path18" />
  <path
     class="cls-3"
     d="m 161.86508,226.92807 a 40,40 0 0 1 -18.42,-4.54 13.75,13.75 0 0 1 -5.5,-19.41 v 0 a 13.57,13.57 0 0 1 16.46,-5.69 18.35,18.35 0 0 0 6.84,1.35 q 4.31,0 7.38,-4.2 a 14.88,14.88 0 0 0 3.08,-8.92 q 0,-4.25 -34.41,-91.529999 a 15.24,15.24 0 0 1 14.17,-20.83 v 0 a 15.23,15.23 0 0 1 14.18,9.69 l 23.07,58.999999 23.08,-58.999999 a 15.23,15.23 0 0 1 14.18,-9.69 v 0 a 15.24,15.24 0 0 1 14.18,20.83 l -43.07,109.179999 a 36.68,36.68 0 0 1 -14,17.53 37.86,37.86 0 0 1 -21.22,6.23 z"
     id="path20" />
  <path
     class="cls-4"
     d="m 327.27508,71.338071 q 20.08,0 35.06,15.68 14.98,15.679999 15,40.289999 0,24.6 -15.38,41.21 -15.38,16.61 -35,16.61 -19.58,0 -32.49,-16.2 v 0 a 14.56,14.56 0 0 1 -14.56,14.56 h -1.64 a 14.56,14.56 0 0 1 -14.55,-14.56 V 46.738071 a 15.38,15.38 0 0 1 15.38,-15.38 v 0 a 15.38,15.38 0 0 1 15.38,15.38 v 38.75 q 12.7,-14.16 32.8,-14.15 z m -33.21,57.099999 q 0,13.42 7.48,21.94 7.48,8.52 18.14,8.5 10.67,0 18.66,-8.5 7.99,-8.5 8,-21.84 0,-13.32 -7.79,-22.35 -7.79,-9.029999 -18.66,-8.999999 -10.87,0 -18.35,8.919999 -7.48,8.92 -7.48,22.33 z"
     id="path22" />
  <path
     class="cls-4"
     d="m 486.45508,157.36807 a 12.58,12.58 0 0 1 -2.88,19.38 61,61 0 0 1 -31.54,8.38 q -25.12,0 -41.52,-15.48 -16.4,-15.48 -16.4,-41.52 0,-26 16.71,-41.409999 a 56.29,56.29 0 0 1 39.46,-15.38 q 22.75,0 38.65,13.74 15.9,13.74 15.93,37.719999 v 0 a 16.4,16.4 0 0 1 -16.4,16.4 h -64 a 21.88,21.88 0 0 0 9.4,14.73 30.15,30.15 0 0 0 18,5.74 37,37 0 0 0 19.11,-4.74 12.54,12.54 0 0 1 15.48,2.49 z m -20.18,-55.28 a 23.27,23.27 0 0 0 -15.47,-5.329999 27.69,27.69 0 0 0 -16.71,5.539999 21.17,21.17 0 0 0 -8.82,15 h 48.39 q -1.03,-9.88 -7.39,-15.21 z"
     id="path24" />
  <path
     class="cls-4"
     d="m 584.98508,100.24807 q -13.74,0 -20.5,9.74 -6.76,9.74 -6.77,25.73 v 32.39 a 15.38,15.38 0 0 1 -15.37,15.38 v 0 a 15.38,15.38 0 0 1 -15.38,-15.38 V 87.738071 a 14.56,14.56 0 0 1 14.56,-14.56 h 1.64 a 14.55,14.55 0 0 1 14.55,14.56 v 0 a 51.83,51.83 0 0 1 14.87,-11.48 c 0.66,-0.35 1.33,-0.68 2,-1 a 11.44,11.44 0 0 1 16.28,10.31 l 0.07,8.73 a 5.91,5.91 0 0 1 -5.91,5.949999 z"
     id="path26" />
  <path
     class="cls-5"
     d="m 937.06508,100.24807 q -13.74,0 -20.5,9.74 -6.76,9.74 -6.77,25.73 v 32.39 a 15.38,15.38 0 0 1 -15.38,15.38 v 0 a 15.38,15.38 0 0 1 -15.37,-15.38 V 87.738071 a 14.55,14.55 0 0 1 14.55,-14.56 h 1.64 a 14.56,14.56 0 0 1 14.56,14.56 v 0 a 51.7,51.7 0 0 1 14.87,-11.48 c 0.66,-0.35 1.32,-0.68 2,-1 a 11.44,11.44 0 0 1 16.2,10.31 l 0.06,8.73 a 5.9,5.9 0 0 1 -5.9,5.949999 z"
     id="path28" />
  <path
     class="cls-6"
     d="m 675.40508,71.338071 q 19.26,0 34.34,16.09 15.08,16.089999 15.12,40.499999 0,24.39 -15.07,40.8 -15.07,16.41 -35.26,16.4 -20.21,0 -32.5,-16.2 v 39 a 15.38,15.38 0 0 1 -15.38,15.37 v 0 a 15.37,15.37 0 0 1 -15.42,-15.37 V 85.488071 a 12.3,12.3 0 0 1 12.3,-12.31 h 6.15 a 12.31,12.31 0 0 1 12.3,12.31 v 0 q 14.14,-14.16 33.42,-14.15 z m -33.83,57.099999 q 0,13.42 7.48,21.94 7.48,8.52 18.15,8.5 10.65,0 18.65,-8.5 8,-8.5 8,-21.84 0,-13.32 -7.79,-22.35 -7.79,-9.029999 -18.66,-8.999999 -10.87,0 -18.35,8.919999 -7.48,8.92 -7.48,22.33 z"
     id="path30" />
  <path
     class="cls-5"
     d="m 968.45508,86.328071 a 14.54,14.54 0 1 1 10.17,4.15 13.86,13.86 0 0 1 -10.17,-4.15 z m 10.17,97.159999 v 0 a 15.38,15.38 0 0 1 -15.37,-15.38 v -54.71 a 15.37,15.37 0 0 1 15.37,-15.379999 v 0 a 15.37,15.37 0 0 1 15.38,15.379999 v 54.71 a 15.38,15.38 0 0 1 -15.38,15.38 z"
     id="path32" />
  <path
     class="cls-7"
     d="m 1059.8651,66.828071 v 7.38 h 15.59 a 11.07,11.07 0 0 1 11.07,11.07 v 0 a 11.07,11.07 0 0 1 -11.07,11.07 h -15.59 v 71.659999 a 15.48,15.48 0 0 1 -15.48,15.48 v 0 a 15.48,15.48 0 0 1 -15.52,-15.48 V 96.348071 h -1.84 a 11.07,11.07 0 0 1 -11.07,-11.07 v 0 a 11.07,11.07 0 0 1 11.07,-11.07 h 1.84 v -6.77 q 0,-18 11,-28.6 11,-10.6 27.27,-10.56 a 40.45,40.45 0 0 1 20.56,5.55 11.7,11.7 0 0 1 4.32,15.64 v 0 a 11.67,11.67 0 0 1 -14.75,5.37 16.6,16.6 0 0 0 -6.54,-1.34 10.08,10.08 0 0 0 -7.86,3.43 q -3,3.34 -3,9.9 z"
     id="path34" />
  <path
     class="cls-6"
     d="m 850.74508,103.05807 a 13.79,13.79 0 0 0 -10.33,-3.999999 16.18,16.18 0 0 0 -5.71,0.999999 11.81,11.81 0 0 0 -4.57,3.06 14.13,14.13 0 0 0 -3,5.36 25.43,25.43 0 0 0 -1.06,7.81 v 8.64 a 49.49,49.49 0 0 1 -1.68,13.47 30.42,30.42 0 0 1 -4.75,10 20.35,20.35 0 0 1 -7.45,6.2 23.49,23.49 0 0 1 -19.55,0 20.82,20.82 0 0 1 -7.44,-6.2 29.1,29.1 0 0 1 -4.75,-10 50.76,50.76 0 0 1 -1.66,-13.47 v -8.7 a 25.43,25.43 0 0 0 -1.06,-7.81 14.13,14.13 0 0 0 -3,-5.36 11.85,11.85 0 0 0 -4.56,-3.059999 16,16 0 0 0 -5.63,-1 17,17 0 0 0 -5.86,1 11.42,11.42 0 0 0 -4.56,3.059999 13.87,13.87 0 0 0 -2.93,5.36 26.47,26.47 0 0 0 -1,7.81 v 9.37 q 0,27.48 14.19,42.74 14.44,15.24 38.12,15.25 23.68,0.01 37.95,-15.25 14.28,-15.17 14.28,-42.74 v -9.37 q -0.04,-9.13 -3.99,-13.17 z"
     id="path36" />
  <circle
     class="cls-6"
     cx="764.06622"
     cy="168.17099"
     r="12.11"
     transform="rotate(-7.02)"
     id="circle38" />
  <circle
     class="cls-6"
     cx="733.81415"
     cy="383.56668"
     r="12.11"
     transform="rotate(-22.5)"
     id="circle40" />
  <path
     class="cls-8"
     d="m 1150.8651,99.108071 a 18.84,18.84 0 1 0 -12.16,-23.71 18.85,18.85 0 0 0 12.16,23.71 z"
     id="path42" />
  <path
     class="cls-8"
     d="m 1131.8651,81.048071 c -0.45,-5.45 2.45,-10.36 1.91,-15.59 a 14.14,14.14 0 0 0 -9.64,-11.91 c -23.41,-7.54 -21.39,31.74 -16.91,44 0.5,1.37 1.07,2.699999 1.68,3.999999 8.24,-1.4 18.92,-4.329999 25.92,-10.429999 a 26.44,26.44 0 0 1 -2.96,-10.07 z"
     id="path44" />
  <path
     class="cls-8"
     d="m 1207.8651,99.188071 a 20.21,20.21 0 0 0 1.56,-7.66 13.27,13.27 0 0 0 -2.72,-8 14.93,14.93 0 0 0 -14.47,-5.58 12.78,12.78 0 0 0 -9.26,7.05 c -3,6.67 -5.28,12.63 -11.86,16.539999 -0.64,0.38 -1.29,0.72 -2,1 1.4,5.82 4.71,17.47 10.32,25.31 12.67,-5.56 23.29,-15.63 28.43,-28.659999 z"
     id="path46" />
  <path
     class="cls-9"
     d="m 1123.2151,120.30807 a 8.08,8.08 0 0 1 2.91,6.16 v 40.3 a 15.53,15.53 0 1 0 31.06,0 v -29.73 a 4.42,4.42 0 0 1 4,-4.43 57.09,57.09 0 0 0 18.31,-4.73 c -5.61,-7.84 -8.92,-19.49 -10.32,-25.31 a 25.64,25.64 0 0 1 -34.31,-11.449999 c -7,6.1 -17.68,8.999999 -25.92,10.429999 a 54.63,54.63 0 0 0 14.27,18.76 z"
     id="path48" />
  <path
     class="cls-10"
     d="m 1249.8651,114.65807 a 16.36,16.36 0 1 1 31.76,-7.84 c 2.73,11.07 8,22 22.77,18.34 a 10.81,10.81 0 1 1 -7.91,13.09 c -3.65,-14.8 -15.75,-14.36 -26.82,-11.63 -6,1.47 -22.35,3.54 -18.87,17.64 a 7.48,7.48 0 1 1 -9.06,-5.47 c 13.85,-3.42 9.87,-17.09 8.13,-24.13"
     id="path50" />
  <path
     class="cls-10"
     d="m 1304.8651,50.508071 a 16.36,16.36 0 0 1 -31.76,7.84 c -2.5,-10.13 -6.71,-22.3 -22.77,-18.34 a 10.81,10.81 0 1 1 7.91,-13.09 c 4,16.06 16.69,14.13 26.82,11.63 8,-2 21.92,-5.25 18.86,-17.64 a 7.49,7.49 0 1 1 9.06,5.47 c -11.87,2.93 -10.21,15.66 -8.12,24.13"
     id="path52" />
  <path
     class="cls-11"
     d="m 1309.4251,110.06807 a 16.36,16.36 0 0 1 -7.83,-31.759999 c 12.18,-3 21.92,-8.25 18.34,-22.77 a 10.81,10.81 0 1 1 13.08,7.91 c -14.51,3.58 -14.63,14.64 -11.62,26.82 1.64,6.67 5.21,21.929999 17.64,18.869999 a 7.48,7.48 0 1 1 -5.47,9.05 c -3,-12 -16.41,-10 -24.14,-8.12"
     id="path54" />
  <path
     class="cls-11"
     d="m 1212.0951,41.498071 a 7.49,7.49 0 0 1 9.06,5.47 c 3.41,13.85 17.09,9.87 24.13,8.13 a 16.36,16.36 0 0 1 7.84,31.76 c -10.13,2.5 -22.3,6.71 -18.34,22.769999 a 10.81,10.81 0 1 1 -13.09,-7.91 c 16.06,-3.999999 14.13,-16.699999 11.63,-26.819999 -1.47,-6 -3.55,-22.34 -17.65,-18.87 a 7.4822674,7.4822674 0 1 1 -3.58,-14.53"
     id="path56" />
  <path
     class="cls-12"
     d="m 1251.0251,145.76807 a 7.49,7.49 0 0 1 -14.75,2.08 c -0.05,-0.22 -0.1,-0.43 -0.13,-0.65 a 14.93,14.93 0 0 1 8.18,-1.7 c 2.37,0.19 4.61,0.28 6.7,0.27 m 32.08,-33.84 c 3.11,9 8.79,16.36 21.3,13.27 a 10.81,10.81 0 1 1 -7.91,13.09 c -3.18,-12.9 -12.78,-14.22 -22.53,-12.54 0.44,-5.5 2.79,-10.82 9.14,-13.82 z"
     id="path58" />
  <path
     class="cls-13"
     d="m 1309.4251,110.06807 a 16.32,16.32 0 0 1 -10.63,-1 c 16,-2 19,-13.419999 17.6,-20.229999 -1.45,-7.31 1.33,-20.9 7.92,-24.16 5.86,-2.9 14,-7.07 13.9,-19.26 a 10.81,10.81 0 0 1 -5.2,18 c -14.51,3.58 -14.63,14.64 -11.62,26.82 1.64,6.67 5.21,21.929999 17.64,18.869999 a 7.48,7.48 0 1 1 -5.47,9.05 c -3,-12 -16.41,-10 -24.14,-8.12"
     id="path60" />
  <path
     class="cls-12"
     d="m 1304.0451,21.498071 c 0,-0.19 -0.09,-0.39 -0.14,-0.59 a 7.49,7.49 0 0 1 14.54,-3.59 8.44,8.44 0 0 1 0.22,1.92 15.44,15.44 0 0 1 -9.61,2.52 c -1.75,-0.14 -3.42,-0.22 -5,-0.26 m -32,32.92 c -2.7,-9 -7.7,-17.87 -21.71,-14.41 a 10.81,10.81 0 1 1 7.91,-13.09 c 3.26,13.22 12.46,14.25 21.26,12.81 -0.07,5.53 -1.83,11.2 -7.49,14.69 z"
     id="path62" />
  <path
     class="cls-13"
     d="m 1212.0951,41.498071 a 7.49,7.49 0 0 1 9.06,5.47 c 3.41,13.85 17.09,9.87 24.13,8.13 a 16.33,16.33 0 0 1 13.67,2.75 h -0.67 c -19.28,0.6 -22.75,13.21 -21.3,20.52 1.45,7.31 -1.33,20.9 -7.92,24.159999 -5.27,2.61 -12.37,6.24 -13.69,15.79 a 10.8,10.8 0 0 1 6.32,-16.62 c 16.06,-3.999999 14.13,-16.699999 11.63,-26.819999 -1.47,-6 -3.55,-22.34 -17.65,-18.87 a 7.4822674,7.4822674 0 1 1 -3.58,-14.53"
     id="path64" />
  <path
     class="cls-14"
     d="m 1356.4251,18.928071 v 0 a 11.11,11.11 0 1 0 -10.39,11.78 11.1,11.1 0 0 0 10.39,-11.78"
     id="path66" />
  <rect
     style="opacity:0"
     id="rect73"
     width="1368.5907"
     height="235.49318"
     x="0"
     y="0" />
</svg>
